<?xml version="1.0" standalone="no"?><!DOCTYPE svg PUBLIC "-//W3C//DTD SVG 1.1//EN" "http://www.w3.org/Graphics/SVG/1.1/DTD/svg11.dtd"><svg t="1507281091220" class="icon" style="" viewBox="0 0 1024 1024" version="1.1" xmlns="http://www.w3.org/2000/svg" p-id="997" xmlns:xlink="http://www.w3.org/1999/xlink" width="200" height="200"><defs><style type="text/css"></style></defs><path d="M957.867804 195.961742l-240.603591 0c10.940871-18.80064 17.667413-40.372907 17.667413-63.6928 0-70.360178-57.034524-127.394702-127.390151-127.394702-38.265742 0-72.189724 17.221404-95.541476 43.936427-23.351751-26.715022-57.275733-43.936427-95.541476-43.936427-70.355627 0-127.390151 57.034524-127.390151 127.394702 0 23.319893 6.726542 44.89216 17.667413 63.6928L66.136747 195.961742c-35.175538 0-63.6928 28.521813-63.6928 63.697351L2.443947 323.356444c0 35.175538 28.517262 63.6928 63.6928 63.6928l0 509.556053c0 70.360178 57.034524 127.394702 127.390151 127.394702l636.946204 0c70.355627 0 127.394702-57.034524 127.394702-127.394702L957.867804 387.049244c35.175538 0 63.6928-28.517262 63.6928-63.6928L1021.560604 259.659093C1021.556053 224.483556 993.043342 195.961742 957.867804 195.961742zM607.541476 68.580693c35.175538 0 63.6928 28.512711 63.6928 63.6928 0 35.175538-28.517262 63.6928-63.6928 63.6928-35.180089 0-63.6928-28.517262-63.6928-63.6928C543.848676 97.093404 572.365938 68.580693 607.541476 68.580693zM416.458524 68.580693c35.180089 0 63.697351 28.512711 63.697351 63.6928 0 35.175538-28.517262 63.6928-63.697351 63.6928-35.175538 0-63.6928-28.517262-63.6928-63.6928C352.761173 97.093404 381.282987 68.580693 416.458524 68.580693zM480.155876 960.302649l-286.628978 0c-35.175538 0-63.6928-28.521813-63.6928-63.697351l0-191.087502 350.321778 0L480.155876 960.302649zM480.155876 641.829547 129.829547 641.829547 129.829547 387.049244l350.321778 0L480.151324 641.829547zM894.170453 896.605298c0 35.180089-28.521813 63.697351-63.697351 63.697351l-286.624427 0 0-254.784853 350.321778 0L894.170453 896.605298zM894.170453 641.829547l-350.321778 0L543.848676 387.049244l350.321778 0L894.170453 641.829547zM926.019129 323.356444 97.985422 323.356444c-17.590044 0-31.848676-14.263182-31.848676-31.853227 0-17.585493 14.258631-31.844124 31.848676-31.844124l828.033707 0c17.590044 0 31.848676 14.258631 31.848676 31.844124C957.867804 309.097813 943.604622 323.356444 926.019129 323.356444z" p-id="998"></path></svg>